<?xml version="1.0" encoding="UTF-8"?>
<svg width="35px" height="35px" viewBox="0 0 35 35" version="1.1" xmlns="http://www.w3.org/2000/svg" xmlns:xlink="http://www.w3.org/1999/xlink">
    <title>Untitled</title>
    <g id="Page-1" stroke="none" stroke-width="1" fill="none" fill-rule="evenodd">
        <g id="fi-rr-heart" transform="translate(9.000000, 0.000000)" fill="#000000" fill-rule="nonzero">
            <path d="M18.9558879,0 C16.4738847,0.038868391 14.2020655,1.41122952 13,3.59783424 C11.7979345,1.41122952 9.52611527,0.038868391 7.04411209,0 C2.99749491,0.177010719 -0.147395128,3.61120301 0.00533546983,7.68628225 C0.00533546983,12.6436617 5.18804084,18.0578571 9.53475613,21.7287383 C11.5381874,23.4237539 14.4618126,23.4237539 16.4652439,21.7287383 C20.8119592,18.0578571 25.9946645,12.6436617 25.9946645,7.68628225 C26.1473951,3.61120301 23.0025051,0.177010719 18.9558879,0 Z M15.0737319,20.0606515 C13.8753895,21.0766303 12.1246105,21.0766303 10.9262681,20.0606515 C5.36238592,15.3605717 2.17111289,10.8512861 2.17111289,7.68628225 C2.01702131,4.8147605 4.19315317,2.35604965 7.04411209,2.1805056 C9.89507101,2.35604965 12.0712029,4.8147605 11.9171113,7.68628225 C11.9171113,8.28841224 12.4019371,8.77653505 13,8.77653505 C13.5980629,8.77653505 14.0828887,8.28841224 14.0828887,7.68628225 C13.9287971,4.8147605 16.104929,2.35604965 18.9558879,2.1805056 C21.8068468,2.35604965 23.9829787,4.8147605 23.8288871,7.68628225 C23.8288871,10.8512861 20.6376141,15.3605717 15.0737319,20.0562905 L15.0737319,20.0606515 Z" id="Shape"></path>
        </g>
        <g id="fi-sr-heart" transform="translate(0.000000, 11.000000)" fill="#000000" fill-rule="nonzero">
            <path d="M19.6849605,0 C17.1074957,0.0405583211 14.7482988,1.47258733 13.5,3.75426182 C12.2517012,1.47258733 9.89250432,0.0405583211 7.31503948,0 C3.11278317,0.184706837 -0.153064172,3.76821184 0.0055406802,8.02046843 C0.0055406802,13.1933862 5.38758087,18.8429814 9.90147751,22.6734661 C11.9819639,24.442178 15.0180361,24.442178 17.0985225,22.6734661 C21.6124191,18.8429814 26.9944593,13.1933862 26.9944593,8.02046843 C27.1530642,3.76821184 23.8872168,0.184706837 19.6849605,0 Z" id="Path"></path>
        </g>
    </g>
</svg>