<?xml version="1.0" encoding="UTF-8"?>
<svg width="576px" height="305px" viewBox="0 0 576 305" version="1.1" xmlns="http://www.w3.org/2000/svg" xmlns:xlink="http://www.w3.org/1999/xlink">
    <title>Untitled</title>
    <g id="Page-1" stroke="none" stroke-width="1" fill="none" fill-rule="evenodd">
        <g id="check" transform="translate(0.000000, 0.000000)" fill="#FFFFFF" fill-rule="nonzero">
            <path d="M152.003906,304.004883 C146.542969,304.004883 141.082031,301.915039 136.921875,297.754883 L6.2578125,167.086914 C-2.0859375,158.747071 -2.0859375,145.262695 6.2578125,136.922852 C14.5976565,128.583008 28.0781255,128.583008 36.4218755,136.922852 L152.003906,252.504883 L398.257812,6.254883 C406.597657,-2.084961 420.078125,-2.084961 428.421875,6.254883 C436.761719,14.598633 436.761719,28.079102 428.421875,36.422852 L167.089845,297.754883 C162.929689,301.915039 157.464845,304.004883 152.003906,304.004883 Z" id="Path"></path>
        </g>
        <g id="check" transform="translate(141.000000, 0.000000)" fill="#FFFFFF" fill-rule="nonzero">
            <path d="M152.003906,304.004883 C146.542969,304.004883 141.082031,301.915039 136.921875,297.754883 L6.2578125,167.086914 C-2.0859375,158.747071 -2.0859375,145.262695 6.2578125,136.922852 C14.5976565,128.583008 28.0781255,128.583008 36.4218755,136.922852 L152.003906,252.504883 L398.257812,6.254883 C406.597656,-2.084961 420.078125,-2.084961 428.421875,6.254883 C436.761719,14.598633 436.761719,28.079102 428.421875,36.422852 L167.089844,297.754883 C162.929689,301.915039 157.464844,304.004883 152.003906,304.004883 Z" id="Path"></path>
        </g>
    </g>
</svg>